<?xml version="1.0" standalone="no"?>
<!DOCTYPE svg PUBLIC "-//W3C//DTD SVG 20010904//EN"
 "http://www.w3.org/TR/2001/REC-SVG-20010904/DTD/svg10.dtd">
<svg version="1.0" xmlns="http://www.w3.org/2000/svg"
 width="574.000000pt" height="574.000000pt" viewBox="0 0 574.000000 574.000000"
 preserveAspectRatio="xMidYMid meet">
<metadata>
Created by potrace 1.14, written by Peter Selinger 2001-2017
</metadata>
<g transform="translate(0.000000,574.000000) scale(0.100000,-0.100000)"
fill="#000000" stroke="none">
<path d="M3470 4747 c0 -18 35 -28 63 -18 20 7 20 8 -5 14 -14 4 -33 10 -42
13 -10 4 -16 1 -16 -9z"/>
<path d="M3754 4628 c-7 -23 -51 -87 -67 -99 -8 -6 17 -12 133 -29 30 -5 67
-12 83 -15 17 -5 27 -3 27 4 0 6 -4 11 -10 11 -5 0 -10 5 -10 11 0 7 -9 19
-20 29 -11 9 -27 34 -35 54 -8 20 -22 36 -30 36 -8 0 -15 5 -15 10 0 6 -11 10
-24 10 -17 0 -27 -7 -32 -22z"/>
<path d="M2992 4570 c-7 -12 -25 -26 -40 -33 -15 -6 -30 -15 -33 -20 -7 -10
-35 -10 -72 -1 -31 7 -87 -12 -87 -31 0 -7 14 -18 30 -25 21 -9 30 -19 30 -36
0 -13 5 -24 10 -24 6 0 10 5 10 10 0 6 14 10 30 10 17 0 30 5 30 10 0 6 10 10
22 10 12 0 35 4 52 9 17 6 52 16 78 23 46 13 47 14 34 39 -7 14 -16 37 -20 52
-5 21 -12 27 -34 27 -17 0 -32 -8 -40 -20z"/>
<path d="M2440 4479 c-79 -22 -150 -43 -231 -70 -48 -16 -96 -29 -108 -29 -11
0 -21 -4 -21 -10 0 -5 -13 -10 -30 -10 -16 0 -30 -4 -30 -10 0 -5 -13 -10 -30
-10 -16 0 -30 -4 -30 -10 0 -5 -11 -10 -24 -10 -27 0 -106 -39 -106 -52 0 -4
-9 -8 -20 -8 -11 0 -20 -7 -20 -15 0 -8 -4 -15 -8 -15 -11 0 -52 -35 -52 -44
0 -4 -10 -17 -22 -30 -13 -13 -34 -38 -48 -55 -44 -57 -74 -86 -105 -101 -16
-8 -42 -28 -58 -44 -21 -22 -33 -27 -52 -22 -22 6 -25 3 -25 -18 0 -17 9 -30
26 -39 35 -18 16 -30 -25 -14 -28 10 -34 9 -54 -10 -12 -12 -32 -31 -44 -43
-13 -11 -23 -29 -23 -40 0 -26 -22 -16 -37 17 -17 35 -16 43 2 43 18 0 20 17
3 23 -21 7 -48 -4 -48 -20 0 -8 7 -30 16 -49 9 -19 13 -41 10 -50 -8 -22 -39
-14 -51 14 -13 29 -17 28 -34 -9 -12 -27 -11 -32 3 -42 16 -12 15 -15 -8 -42
-16 -19 -26 -42 -26 -62 0 -18 -4 -33 -10 -33 -5 0 -10 -9 -10 -20 0 -11 5
-20 10 -20 6 0 10 -15 10 -34 0 -19 4 -38 10 -41 5 -3 10 -17 10 -31 0 -13 5
-24 10 -24 6 0 10 -7 10 -15 0 -17 18 -52 38 -73 6 -7 12 -18 12 -23 0 -14 61
-69 76 -69 8 0 14 -4 14 -10 0 -5 16 -10 35 -10 30 0 35 -3 35 -23 0 -13 -5
-28 -11 -34 -5 -5 -9 -32 -7 -59 2 -31 -2 -53 -10 -59 -6 -5 -18 -37 -24 -70
-7 -33 -22 -70 -33 -81 -11 -12 -61 -64 -111 -115 -79 -80 -90 -96 -77 -107
12 -12 34 7 149 122 74 75 137 136 139 136 3 0 5 -18 5 -40 0 -22 -3 -40 -7
-40 -5 0 -10 -62 -11 -138 -2 -75 -6 -140 -9 -144 -2 -5 -15 -8 -29 -8 -13 0
-24 -4 -24 -10 0 -5 -9 -10 -20 -10 -11 0 -20 -4 -20 -10 0 -5 -11 -10 -24
-10 -14 0 -28 -4 -31 -10 -3 -5 -17 -10 -30 -10 -19 0 -27 7 -34 33 l-9 32 -1
-28 c-1 -36 -22 -57 -55 -57 -14 0 -26 -4 -26 -10 0 -5 -7 -10 -16 -10 -8 0
-23 -7 -31 -16 -13 -13 -14 -20 -5 -35 7 -10 12 -30 12 -43 0 -14 5 -28 10
-31 6 -3 10 -19 10 -34 0 -32 9 -35 145 -50 101 -11 114 -17 120 -60 11 -62
27 -135 36 -159 5 -13 9 -34 9 -48 0 -36 27 -42 56 -11 13 14 24 31 24 37 0 5
5 10 10 10 6 0 10 7 10 15 0 8 5 15 10 15 6 0 10 9 10 20 0 11 5 20 10 20 6 0
10 9 10 19 0 11 4 22 9 25 5 3 11 18 14 33 3 16 11 46 17 68 19 66 29 124 45
250 18 152 18 268 -1 420 -9 66 -18 155 -21 198 -5 75 -4 80 37 166 36 76 45
88 56 76 8 -7 14 -18 14 -24 0 -14 103 -215 112 -219 4 -2 8 -10 8 -18 0 -8 5
-14 10 -14 6 0 10 -7 10 -15 0 -8 5 -15 10 -15 6 0 10 -7 10 -15 0 -8 3 -15 8
-15 4 0 18 -17 32 -37 33 -50 126 -143 143 -143 7 0 19 9 27 20 8 11 18 20 23
20 5 0 22 14 37 30 15 17 34 30 42 30 7 0 20 9 28 20 8 11 21 20 29 20 17 0
52 40 45 51 -3 5 -11 9 -19 9 -31 0 -104 50 -172 116 -40 39 -73 76 -73 81 0
5 -9 20 -20 33 -11 13 -23 35 -27 49 -3 14 -9 28 -12 31 -12 10 -31 77 -31
107 0 17 -3 51 -6 77 -6 39 -10 46 -30 46 -12 0 -24 -6 -27 -12 -2 -8 -8 -9
-13 -4 -5 5 -4 11 4 13 6 3 12 12 12 22 0 9 9 23 20 31 11 8 20 22 20 32 0 10
5 18 10 18 6 0 10 10 10 23 0 12 18 59 40 105 22 45 40 85 40 88 0 17 34 34
69 34 22 0 43 5 46 10 3 6 18 10 32 10 18 0 24 4 19 15 -7 20 3 45 18 45 7 0
22 -9 34 -20 12 -12 23 -16 27 -10 3 6 14 10 24 10 9 0 27 9 39 20 12 11 28
20 37 20 8 0 15 5 15 10 0 6 7 10 15 10 8 0 15 4 15 8 0 4 16 14 35 21 19 7
35 16 35 21 0 5 9 12 20 15 11 3 20 13 20 21 0 18 -15 18 -34 -1 -15 -15 -46
-11 -46 7 0 15 29 41 64 58 18 9 32 24 34 38 4 27 22 29 22 2 0 -27 11 -25 35
6 26 35 47 44 80 36 l28 -8 -29 -18 c-39 -26 -84 -72 -62 -63 10 3 20 2 23 -2
2 -5 16 -11 30 -13 13 -3 22 -2 20 3 -6 9 39 79 58 91 8 5 4 8 -10 8 -13 0
-23 5 -23 10 0 6 -9 10 -21 10 -15 0 -19 4 -15 16 3 9 6 18 6 20 0 2 5 4 11 4
6 0 17 7 26 15 16 17 15 19 -42 81 -11 11 -29 32 -40 46 -37 47 -74 56 -145
37z m-173 -341 c-3 -8 -6 -5 -6 6 -1 11 2 17 5 13 3 -3 4 -12 1 -19z m-254
-45 c-7 -2 -19 -2 -25 0 -7 3 -2 5 12 5 14 0 19 -2 13 -5z m202 -113 c3 -5 1
-10 -4 -10 -6 0 -11 5 -11 10 0 6 2 10 4 10 3 0 8 -4 11 -10z m-345 -20 c0 -5
-12 -10 -26 -10 -14 0 -23 4 -19 10 3 6 15 10 26 10 10 0 19 -4 19 -10z m-191
-153 c-2 -1 -12 -9 -21 -16 -15 -12 -18 -11 -18 3 0 10 8 16 22 16 12 0 19 -1
17 -3z m94 -24 c-7 -2 -19 -2 -25 0 -7 3 -2 5 12 5 14 0 19 -2 13 -5z m-35
-50 c-13 -16 -48 -17 -48 -2 0 7 8 17 17 24 21 16 47 -3 31 -22z m-75 -52 c-4
-3 -11 -10 -15 -15 -5 -5 -8 0 -8 12 0 15 4 20 16 15 9 -3 12 -9 7 -12z m-426
-33 c-3 -8 -6 -5 -6 6 -1 11 2 17 5 13 3 -3 4 -12 1 -19z m223 -508 c0 -5 -4
-10 -10 -10 -5 0 -10 5 -10 10 0 6 5 10 10 10 6 0 10 -4 10 -10z"/>
<path d="M2980 4251 c0 -9 24 -21 41 -21 5 0 9 7 9 15 0 9 -9 15 -25 15 -14 0
-25 -4 -25 -9z"/>
<path d="M2785 4230 c3 -5 12 -7 20 -3 21 7 19 13 -6 13 -11 0 -18 -4 -14 -10z"/>
<path d="M2718 4193 c6 -2 18 -2 25 0 6 3 1 5 -13 5 -14 0 -19 -2 -12 -5z"/>
<path d="M3370 4100 c0 -5 5 -10 11 -10 5 0 7 5 4 10 -3 6 -8 10 -11 10 -2 0
-4 -4 -4 -10z"/>
<path d="M3391 4064 c0 -11 3 -14 6 -6 3 7 2 16 -1 19 -3 4 -6 -2 -5 -13z"/>
<path d="M2685 3650 c-3 -5 -13 -10 -22 -10 -14 0 -39 -23 -80 -74 -7 -8 -13
-40 -13 -71 0 -71 27 -117 88 -152 27 -16 126 -17 154 -2 32 17 68 56 68 74 0
8 5 15 10 15 6 0 10 26 10 58 0 41 -6 64 -20 82 -11 14 -20 30 -20 35 -1 31
-159 71 -175 45z m95 -60 c0 -5 6 -10 14 -10 14 0 26 -21 26 -46 0 -11 -17
-14 -75 -14 -66 0 -75 2 -75 18 0 34 32 62 73 62 20 0 37 -4 37 -10z"/>
<path d="M3000 3570 c0 -5 -7 -10 -15 -10 -9 0 -27 -11 -40 -25 -20 -19 -25
-34 -25 -75 0 -28 6 -57 13 -64 33 -33 65 -46 108 -46 41 0 53 5 88 38 58 54
57 89 -5 148 -38 37 -52 44 -85 44 -21 0 -39 -4 -39 -10z m84 -46 c14 -36 7
-44 -39 -44 -32 0 -45 4 -45 14 0 33 13 46 45 46 21 0 35 -6 39 -16z"/>
<path d="M4373 3413 c-15 -5 -18 -43 -4 -43 5 0 11 11 13 25 3 14 5 25 4 24 0
0 -7 -3 -13 -6z"/>
<path d="M2900 3330 c0 -11 -4 -20 -10 -20 -5 0 -10 -9 -10 -20 0 -11 -4 -20
-10 -20 -5 0 -10 -4 -10 -10 0 -5 23 -10 50 -10 28 0 50 4 50 9 0 15 -43 91
-52 91 -4 0 -8 -9 -8 -20z"/>
<path d="M4364 3325 c-17 -13 -17 -14 -1 -15 9 0 17 -4 17 -10 0 -19 17 -10
28 15 10 22 9 25 -6 25 -10 0 -27 -7 -38 -15z"/>
<path d="M4400 3260 c0 -5 5 -10 10 -10 6 0 10 5 10 10 0 6 -4 10 -10 10 -5 0
-10 -4 -10 -10z"/>
<path d="M4340 3200 c0 -5 5 -10 10 -10 6 0 10 5 10 10 0 6 -4 10 -10 10 -5 0
-10 -4 -10 -10z"/>
<path d="M4420 3200 c0 -5 5 -10 10 -10 6 0 10 5 10 10 0 6 -4 10 -10 10 -5 0
-10 -4 -10 -10z"/>
<path d="M4462 3183 c-7 -3 -25 -16 -39 -29 -27 -25 -43 -30 -43 -14 0 6 -9
10 -20 10 -17 0 -20 -7 -20 -50 0 -27 -4 -50 -10 -50 -5 0 -10 -7 -10 -15 0
-8 5 -15 11 -15 6 0 9 -6 6 -12 -2 -8 -15 -12 -30 -10 -25 3 -27 1 -27 -37 0
-23 -4 -41 -8 -41 -17 0 -32 25 -32 52 0 15 -4 28 -10 28 -5 0 -10 -5 -10 -11
0 -5 -5 -7 -10 -4 -6 4 -10 14 -9 23 3 31 -1 43 -11 37 -5 -3 -10 -17 -10 -29
0 -14 -10 -30 -24 -39 -22 -15 -24 -14 -34 6 -10 21 -11 20 -18 -12 -7 -31 -8
-33 -15 -13 -5 12 -15 22 -24 22 -8 0 -15 7 -15 15 0 8 -4 15 -10 15 -6 0 -10
-29 -10 -67 0 -60 8 -99 31 -158 34 -88 57 -318 39 -395 -19 -78 -31 -124 -41
-156 -13 -43 -15 -414 -2 -422 5 -4 13 -19 16 -33 7 -27 39 -69 53 -69 5 0 17
21 26 48 13 38 14 57 6 102 -17 93 -17 109 3 150 10 21 19 51 19 65 0 14 5 25
10 25 6 0 10 -32 10 -75 0 -41 4 -75 9 -75 5 0 11 -13 14 -29 4 -16 18 -41 32
-55 14 -14 25 -30 25 -36 0 -5 3 -10 8 -10 4 0 21 -13 39 -28 82 -71 93 -76
93 -42 0 14 7 20 24 20 17 0 27 9 36 30 12 29 44 42 52 21 5 -15 58 -25 58
-11 0 15 25 40 40 40 21 0 40 28 40 59 0 17 5 31 10 31 15 0 13 277 -2 282 -6
2 -9 11 -6 19 6 16 116 34 273 44 50 4 94 10 98 14 5 5 -91 109 -212 231 -200
202 -221 226 -221 256 0 19 -4 34 -10 34 -5 0 -10 14 -10 30 0 17 -4 30 -10
30 -5 0 -10 9 -10 20 0 11 -4 20 -10 20 -5 0 -10 15 -10 33 -1 41 -22 71 -38
55 -9 -9 -12 -7 -12 10 0 12 4 22 9 22 17 0 -2 50 -21 56 -20 6 -21 34 -3 77
7 17 1 20 -23 10z m-9 -68 c4 -8 2 -17 -3 -20 -6 -4 -10 3 -10 14 0 25 6 27
13 6z m-37 -27 c4 -6 2 -14 -4 -16 -7 -2 -12 -10 -12 -18 0 -8 -4 -14 -10 -14
-5 0 -10 14 -10 30 0 31 22 42 36 18z m17 -53 c-3 -9 -8 -14 -10 -11 -3 3 -2
9 2 15 9 16 15 13 8 -4z m-102 -218 c-8 -8 -11 -3 -11 19 1 25 2 27 11 11 8
-14 8 -22 0 -30z m-64 -2 c-15 -14 -47 -21 -47 -9 0 9 24 30 40 36 21 7 25 -9
7 -27z m247 -11 c7 -19 -2 -37 -15 -29 -12 8 -12 45 0 45 5 0 12 -7 15 -16z
m-105 -61 c-1 -21 -3 -30 -6 -20 -2 9 -9 17 -14 17 -5 0 -9 9 -9 20 0 11 7 20
15 20 11 0 15 -10 14 -37z m-69 3 c0 -8 -4 -18 -10 -21 -5 -3 -10 3 -10 14 0
12 5 21 10 21 6 0 10 -6 10 -14z m87 -68 c-3 -8 -6 -5 -6 6 -1 11 2 17 5 13 3
-3 4 -12 1 -19z m-67 -13 c0 -8 -4 -17 -10 -20 -6 -4 -10 5 -10 20 0 15 4 24
10 20 6 -3 10 -12 10 -20z m358 -114 c63 -66 92 -101 92 -113 0 -4 -30 -8 -66
-8 -78 0 -93 12 -94 78 0 35 -3 42 -20 42 -11 0 -20 5 -20 10 0 6 5 10 10 10
6 0 10 9 10 20 0 35 29 22 88 -39z m-268 25 c0 -16 -18 -31 -27 -22 -8 8 5 36
17 36 5 0 10 -6 10 -14z m-174 -43 c-10 -10 -19 5 -10 18 6 11 8 11 12 0 2 -7
1 -15 -2 -18z m104 -3 c0 -11 -4 -20 -10 -20 -5 0 -10 -9 -10 -20 0 -11 -4
-20 -10 -20 -5 0 -10 9 -10 20 0 11 5 20 10 20 6 0 10 9 10 20 0 11 5 20 10
20 6 0 10 -9 10 -20z m187 -12 c-3 -7 -5 -2 -5 12 0 14 2 19 5 13 2 -7 2 -19
0 -25z m43 -58 c0 -5 -4 -10 -10 -10 -5 0 -10 5 -10 10 0 6 5 10 10 10 6 0 10
-4 10 -10z m-413 -42 c-3 -7 -5 -2 -5 12 0 14 2 19 5 13 2 -7 2 -19 0 -25z
m10 -138 c-12 -17 -16 -18 -20 -6 -4 9 1 20 11 25 23 13 27 6 9 -19z m299 -57
c-11 -11 -19 6 -11 24 8 17 8 17 12 0 3 -10 2 -21 -1 -24z m-126 7 c0 -5 -4
-10 -10 -10 -5 0 -10 5 -10 10 0 6 5 10 10 10 6 0 10 -4 10 -10z"/>
<path d="M3923 3048 c-24 -39 -44 -75 -49 -90 -4 -10 -15 -18 -25 -18 -11 0
-19 -5 -19 -10 0 -6 -7 -6 -19 2 -16 9 -24 6 -55 -25 -41 -41 -50 -87 -17 -87
11 0 23 9 26 20 3 11 11 20 16 20 18 0 9 -15 -26 -44 -27 -23 -35 -37 -35 -63
0 -24 4 -33 17 -33 15 0 15 -1 1 -12 -14 -11 -18 -41 -22 -158 -3 -80 -9 -193
-12 -252 -5 -87 -3 -110 9 -122 8 -8 17 -39 21 -68 12 -91 27 -128 50 -128 33
0 46 60 46 214 0 86 4 137 11 141 11 7 49 -27 49 -43 0 -5 10 -14 23 -20 12
-6 16 -11 10 -11 -7 -1 -13 -10 -13 -21 0 -24 6 -25 26 -5 9 8 21 15 27 14 9
0 8 -2 0 -6 -7 -2 -13 -13 -13 -24 0 -14 -7 -19 -30 -19 -23 0 -30 -5 -30 -19
0 -11 6 -22 13 -25 10 -5 10 -7 0 -12 -18 -8 -17 -64 2 -64 26 0 63 22 73 45
12 26 15 325 3 325 -5 0 -9 26 -10 57 0 31 -5 61 -11 67 -7 7 -10 6 -10 -3 0
-16 -25 -41 -40 -41 -7 0 -9 8 -5 20 4 12 2 20 -6 20 -9 0 -8 4 1 15 7 8 21
15 31 15 16 0 19 8 19 45 0 25 -4 45 -10 45 -5 0 -10 -6 -10 -14 0 -22 -27
-26 -43 -8 -28 32 -19 77 24 122 40 41 51 84 27 108 -9 9 -6 16 10 30 12 11
22 27 22 36 0 9 5 16 10 16 17 0 11 29 -12 55 -24 28 -33 31 -45 13z m-33
-164 c0 -22 -29 -49 -41 -37 -5 5 -2 17 9 31 20 26 32 28 32 6z m17 -46 c-3
-8 -6 -5 -6 6 -1 11 2 17 5 13 3 -3 4 -12 1 -19z"/>
<path d="M3520 3023 c8 -4 22 -14 31 -25 9 -10 24 -18 33 -18 9 0 16 -4 16
-10 0 -5 6 -10 13 -10 6 0 26 -14 44 -30 31 -30 63 -40 63 -20 0 6 -4 10 -9
10 -5 0 -11 13 -14 28 -5 24 -17 33 -69 55 -35 15 -76 27 -93 26 -17 0 -23 -3
-15 -6z"/>
<path d="M1012 2578 c-7 -7 -12 -16 -12 -21 0 -5 7 -1 16 8 9 9 14 18 12 20
-2 3 -10 -1 -16 -7z"/>
<path d="M823 2391 c-57 -56 -103 -105 -103 -110 0 -14 28 -21 88 -21 31 0 82
-5 114 -12 31 -7 60 -10 63 -7 2 3 1 19 -5 35 -5 16 -14 49 -21 74 -7 25 -16
50 -20 55 -4 6 -9 27 -11 48 l-3 38 -102 -100z"/>
<path d="M3325 2389 c-27 -21 -60 -39 -72 -39 -13 0 -23 -4 -23 -10 0 -5 5
-10 10 -10 6 0 10 -5 10 -11 0 -17 27 -39 47 -39 11 0 43 11 71 25 40 19 52
30 52 48 0 29 -22 77 -35 76 -5 0 -32 -18 -60 -40z"/>
<path d="M2301 2274 c0 -11 3 -14 6 -6 3 7 2 16 -1 19 -3 4 -6 -2 -5 -13z"/>
<path d="M2129 2190 c-6 -45 -4 -58 7 -48 3 3 4 26 2 49 l-3 44 -6 -45z"/>
<path d="M2181 2188 c0 -27 4 -48 9 -48 11 0 11 21 0 65 -7 27 -8 25 -9 -17z"/>
<path d="M1790 2176 c0 -20 5 -36 10 -36 6 0 10 13 10 29 0 17 -4 33 -10 36
-6 4 -10 -8 -10 -29z"/>
<path d="M1912 2170 c0 -19 2 -27 5 -17 2 9 2 25 0 35 -3 9 -5 1 -5 -18z"/>
<path d="M3950 2065 c0 -8 5 -15 10 -15 6 0 10 7 10 15 0 8 -4 15 -10 15 -5 0
-10 -7 -10 -15z"/>
<path d="M3208 1973 c7 -3 16 -2 19 1 4 3 -2 6 -13 5 -11 0 -14 -3 -6 -6z"/>
<path d="M3230 1950 c0 -5 -19 -10 -42 -11 -42 -1 -42 -1 -13 -10 38 -11 85
-2 85 17 0 8 -7 14 -15 14 -8 0 -15 -4 -15 -10z"/>
<path d="M2858 1933 c7 -3 16 -2 19 1 4 3 -2 6 -13 5 -11 0 -14 -3 -6 -6z"/>
<path d="M2920 1930 c0 -12 17 -12 45 0 17 7 15 9 -12 9 -18 1 -33 -3 -33 -9z"/>
<path d="M2880 1890 c0 -11 -4 -20 -10 -20 -14 0 -12 -37 3 -44 10 -5 10 -7 0
-12 -7 -3 -13 -14 -13 -24 0 -10 -6 -21 -12 -24 -10 -5 -10 -7 0 -12 6 -3 12
-21 12 -40 0 -19 5 -34 10 -34 6 0 10 -20 10 -45 0 -25 5 -45 10 -45 6 0 10
-9 10 -20 0 -11 -4 -20 -10 -20 -5 0 -10 -7 -10 -15 0 -8 9 -15 20 -15 13 0
20 -7 20 -20 0 -11 -4 -20 -8 -20 -4 0 -14 9 -22 20 -8 11 -24 20 -35 21 -11
0 -14 3 -7 6 14 6 16 79 2 88 -5 3 -10 17 -10 31 0 13 -4 24 -10 24 -5 0 -10
9 -10 20 0 11 -4 20 -9 20 -5 0 -11 12 -14 28 -8 39 -40 72 -71 72 -14 0 -26
5 -26 10 0 6 -7 10 -15 10 -8 0 -15 -4 -15 -10 0 -14 -37 -13 -46 1 -4 8 -9 7
-15 -2 -13 -20 -11 -29 6 -29 9 0 15 -6 13 -13 -2 -7 12 -27 30 -45 17 -17 32
-36 32 -41 0 -5 8 -12 18 -15 9 -3 23 -19 30 -36 10 -22 21 -30 38 -30 20 0
22 -2 12 -13 -10 -11 -20 -9 -57 12 -26 14 -47 29 -49 33 -2 4 -12 8 -23 8
-10 0 -19 5 -19 10 0 6 -11 10 -25 10 -14 0 -25 4 -25 9 0 5 -13 11 -30 15
-18 3 -30 12 -30 21 0 12 -13 15 -59 15 -38 0 -61 4 -64 13 -4 9 -8 8 -16 -3
-7 -11 -6 -17 5 -23 8 -5 37 -30 65 -58 27 -27 54 -49 59 -49 6 0 10 -7 10
-15 0 -8 9 -15 20 -15 11 0 20 -3 20 -7 0 -11 50 -33 71 -33 10 0 21 -4 24
-10 3 -5 15 -10 25 -10 10 0 20 -8 22 -17 3 -15 -8 -20 -55 -30 -35 -7 -66
-20 -77 -33 -9 -11 -22 -20 -28 -20 -10 0 -62 -46 -62 -55 0 -2 27 -4 60 -4
33 0 60 5 60 10 0 5 18 9 39 9 22 0 43 5 46 10 3 6 24 10 46 10 21 0 39 5 39
10 0 6 7 10 15 10 8 0 15 5 15 10 0 6 9 10 20 10 11 0 20 -4 20 -10 0 -5 -7
-10 -15 -10 -8 0 -15 -9 -15 -20 0 -15 -7 -20 -28 -20 -22 0 -33 -9 -55 -45
-34 -58 -34 -72 -1 -46 15 12 44 26 65 31 22 6 39 15 39 21 0 16 27 39 44 39
9 0 16 -4 16 -10 0 -5 5 -10 10 -10 6 0 10 14 10 30 0 17 3 30 6 30 3 0 27
-22 54 -50 27 -27 52 -50 56 -50 4 0 17 -12 30 -27 l24 -28 0 26 c0 14 -4 29
-8 35 -5 5 -6 20 -1 34 4 14 7 19 8 13 1 -7 9 -13 19 -13 10 0 23 -5 29 -11 6
-6 28 -11 50 -11 21 0 40 -4 43 -8 6 -10 87 -17 96 -8 3 4 -15 27 -40 52 -35
35 -53 46 -77 46 -22 0 -32 5 -36 20 -5 17 -14 20 -59 20 -30 0 -54 3 -54 8 0
10 50 32 75 32 12 0 27 6 33 12 10 10 15 10 22 -2 6 -9 13 -11 18 -5 8 11 68
36 92 38 8 1 19 8 23 15 4 6 16 12 26 12 9 0 32 11 51 25 19 14 40 25 48 25
11 0 12 3 3 14 -12 15 -118 19 -127 5 -3 -5 -14 -3 -25 4 -16 10 -21 9 -28 -2
-6 -8 -18 -12 -31 -8 -13 3 -41 -2 -64 -13 -22 -10 -54 -21 -71 -25 -18 -4
-51 -29 -82 -61 l-52 -54 -25 25 c-26 26 -34 55 -16 55 6 0 10 14 10 30 0 17
5 30 11 30 6 0 9 6 6 14 -3 7 1 23 9 34 11 16 11 22 1 26 -9 5 -9 7 1 12 20 9
15 94 -8 132 -22 36 -40 42 -40 12 0 -13 7 -20 20 -20 11 0 20 -4 20 -10 0 -5
-9 -10 -20 -10 -11 0 -20 5 -20 10 0 6 -9 10 -20 10 -13 0 -20 7 -20 20 0 11
6 20 14 20 20 0 28 27 10 34 -23 9 -24 8 -24 -14z m-180 -110 c0 -5 -2 -10 -4
-10 -3 0 -8 5 -11 10 -3 6 -1 10 4 10 6 0 11 -4 11 -10z m126 -208 c9 -5 9
-10 0 -18 -9 -8 -17 -8 -30 1 -13 10 -14 14 -4 18 19 8 22 8 34 -1z m-46 -82
c0 -5 -9 -10 -21 -10 -11 0 -17 5 -14 10 3 6 13 10 21 10 8 0 14 -4 14 -10z"/>
<path d="M2962 1890 c0 -14 2 -19 5 -12 2 6 2 18 0 25 -3 6 -5 1 -5 -13z"/>
<path d="M3230 1900 c0 -5 5 -10 10 -10 6 0 10 5 10 10 0 6 -4 10 -10 10 -5 0
-10 -4 -10 -10z"/>
<path d="M2670 1884 c0 -9 5 -14 12 -12 18 6 21 28 4 28 -9 0 -16 -7 -16 -16z"/>
<path d="M3170 1885 c0 -8 5 -15 10 -15 15 0 12 -29 -4 -46 -17 -16 -46 -19
-46 -4 0 6 -9 10 -20 10 -12 0 -20 7 -20 18 0 14 -2 15 -10 2 -6 -10 -6 -16 0
-18 18 -6 11 -22 -9 -22 -11 0 -23 -9 -26 -20 -3 -11 -11 -20 -16 -20 -5 0 -9
-9 -9 -20 0 -11 -4 -20 -10 -20 -5 0 -10 -18 -10 -39 0 -22 -4 -41 -9 -43 -5
-1 -11 -19 -13 -38 -2 -25 1 -35 13 -38 16 -3 79 51 79 68 0 5 9 15 20 22 11
7 20 19 20 26 0 8 14 27 30 42 17 15 30 35 30 44 0 9 5 16 10 16 6 0 10 8 10
18 0 10 9 24 20 32 11 8 20 18 20 22 0 4 -9 8 -20 8 -11 0 -20 7 -20 15 0 8
-4 15 -10 15 -5 0 -10 -7 -10 -15z"/>
<path d="M3100 1880 c0 -5 5 -10 10 -10 6 0 10 5 10 10 0 6 -4 10 -10 10 -5 0
-10 -4 -10 -10z"/>
<path d="M2710 1851 c0 -12 6 -21 15 -21 8 0 15 4 15 9 0 5 -7 14 -15 21 -13
10 -15 9 -15 -9z"/>
<path d="M3137 1863 c-12 -12 -7 -33 8 -33 17 0 19 9 7 28 -5 7 -11 9 -15 5z"/>
<path d="M2651 1844 c0 -11 3 -14 6 -6 3 7 2 16 -1 19 -3 4 -6 -2 -5 -13z"/>
<path d="M2340 1760 c0 -5 7 -7 15 -4 8 4 15 8 15 10 0 2 -7 4 -15 4 -8 0 -15
-4 -15 -10z"/>
<path d="M2960 1544 c0 -8 5 -12 10 -9 6 3 10 10 10 16 0 5 -4 9 -10 9 -5 0
-10 -7 -10 -16z"/>
<path d="M1716 1263 c-2 -3 16 -25 40 -50 25 -25 48 -42 52 -38 4 4 1 10 -5
12 -24 9 -13 23 18 23 27 0 29 2 15 15 -8 8 -26 15 -40 15 -14 0 -27 4 -30 9
-7 10 -43 21 -50 14z"/>
<path d="M4052 1235 c-34 -12 -65 -25 -69 -28 -3 -4 -15 -7 -25 -7 -11 0 -26
-6 -33 -14 -12 -12 -9 -15 20 -20 39 -8 54 -24 34 -37 -7 -4 -10 -11 -7 -14 4
-4 24 9 45 28 21 20 47 44 58 54 32 29 59 63 49 62 -5 -1 -37 -12 -72 -24z"/>
<path d="M1925 1080 c-3 -5 -22 -10 -41 -10 -19 0 -34 -4 -34 -10 0 -5 -18
-10 -40 -10 -22 0 -40 -4 -40 -10 0 -5 -13 -10 -30 -10 -16 0 -30 -4 -30 -10
0 -5 -9 -10 -19 -10 -20 0 -104 -40 -109 -52 -2 -5 -9 -8 -16 -8 -16 0 -106
-84 -106 -99 0 -6 -4 -11 -10 -11 -5 0 -10 -9 -10 -20 0 -11 -4 -20 -10 -20
-5 0 -10 -22 -10 -50 0 -27 5 -50 10 -50 6 0 10 -9 10 -20 0 -11 5 -20 10 -20
6 0 10 -6 10 -14 0 -18 64 -83 101 -102 l29 -14 29 58 c16 32 42 67 58 77 15
10 35 27 44 37 9 10 21 18 28 18 6 0 11 5 11 10 0 6 5 10 11 10 11 0 39 24 39
34 0 3 -45 6 -101 6 -121 0 -138 9 -109 58 29 47 116 87 263 121 61 14 433 14
494 0 92 -21 128 -33 173 -55 53 -26 87 -30 155 -19 72 11 80 17 53 42 -30 27
-131 83 -152 83 -9 0 -16 3 -16 8 0 9 -72 32 -100 32 -11 0 -20 5 -20 10 0 6
-22 10 -49 10 -28 0 -53 5 -56 10 -4 6 -85 10 -210 10 -125 0 -206 -4 -210
-10z"/>
<path d="M3580 1080 c0 -5 -20 -10 -44 -10 -25 0 -48 -4 -51 -10 -3 -5 -17
-10 -31 -10 -13 0 -32 -4 -42 -9 -9 -5 -30 -14 -47 -21 -67 -28 -150 -74 -171
-96 -27 -26 -26 -26 56 -40 56 -9 91 -6 110 11 31 27 121 57 230 77 88 16 358
21 420 8 30 -6 78 -16 105 -21 64 -14 153 -46 170 -62 7 -6 22 -19 34 -27 13
-9 21 -25 21 -42 l0 -28 -145 0 c-90 0 -145 -4 -145 -10 0 -5 14 -10 30 -10
17 0 30 -4 30 -10 0 -5 8 -10 18 -10 10 0 24 -9 32 -20 8 -11 20 -20 27 -20 7
0 13 -4 13 -8 0 -4 12 -15 28 -24 44 -26 72 -54 72 -72 0 -9 5 -16 10 -16 6 0
10 -8 10 -17 1 -27 27 -56 42 -47 121 69 177 197 129 293 -25 48 -127 141
-156 141 -8 0 -15 5 -15 10 0 6 -9 10 -20 10 -11 0 -20 5 -20 10 0 6 -11 10
-24 10 -14 0 -28 5 -31 10 -3 6 -17 10 -30 10 -13 0 -27 5 -30 10 -3 6 -21 10
-40 10 -19 0 -37 5 -40 10 -3 6 -31 10 -61 10 -30 0 -54 5 -54 10 0 6 -72 10
-195 10 -123 0 -195 -4 -195 -10z"/>
<path d="M2770 850 c-8 -5 -29 -10 -47 -10 -41 0 -81 -18 -88 -41 -5 -14 -22
-18 -103 -23 -180 -10 -257 -18 -266 -27 -6 -5 -27 -9 -48 -9 -21 0 -38 -4
-38 -10 0 -5 -11 -10 -25 -10 -14 0 -25 -4 -25 -10 0 -5 -5 -10 -11 -10 -20 0
-79 -73 -80 -99 -2 -64 -8 -132 -13 -149 -4 -10 -23 -23 -44 -29 -29 -9 6 -10
158 -8 180 2 226 7 335 33 151 37 275 112 343 209 36 50 28 165 -13 195 -13
10 -17 10 -35 -2z"/>
<path d="M3126 853 c-19 -19 -36 -79 -36 -127 0 -40 4 -54 20 -64 11 -7 20
-17 20 -23 0 -19 71 -78 135 -114 82 -45 192 -81 321 -104 81 -15 428 -13 367
2 -47 11 -45 6 -47 119 -1 14 -4 30 -8 34 -5 4 -8 18 -8 31 0 14 -6 31 -12 38
-7 8 -18 20 -24 27 -25 28 -55 48 -74 48 -11 0 -20 5 -20 10 0 6 -15 10 -33
10 -18 0 -37 4 -43 9 -5 5 -38 11 -74 14 -134 11 -286 36 -320 53 -19 10 -55
21 -80 25 -25 3 -52 9 -61 13 -8 4 -19 3 -23 -1z"/>
</g>
</svg>
